<svg width="2714" height="1500" viewBox="0 0 2714 1500" fill="none" xmlns="http://www.w3.org/2000/svg">
<path d="M2683.5 1064L2602.78 1118.87C2597.45 1122.49 2593.66 1127.97 2592.13 1134.23L2581.23 1179M2663 1156C2660.89 1193.06 2649.84 1210.77 2610.36 1234.62C2607.36 1236.43 2603.62 1236.48 2600.55 1234.81L2580.28 1223.78C2575.1 1220.96 2572.47 1215.01 2573.86 1209.29L2581.23 1179M2581.23 1179C2589.3 1179 2600.47 1177.4 2610.88 1175.65C2622.63 1173.69 2633.35 1167.69 2641.34 1158.86L2676.5 1120" stroke="black" stroke-width="7"/>
<path d="M1831.5 1335.5L1961.5 1344.5M1961.5 1344.5C2192.38 1318.99 2319.45 1299.11 2534.83 1253.04C2539.39 1252.06 2544.21 1252.88 2548.17 1255.34L2577 1273.25M1961.5 1344.5L1930.5 1382.25M1896.5 1421.5L1930.5 1382.25M2613.5 1295.5C2599.83 1287.01 2590.67 1281.74 2577 1273.25M1930.5 1382.25C2180.15 1349.77 2319.63 1330.47 2577 1273.25" stroke="black" stroke-width="7"/>
<path d="M1290 1272.5C1596.48 1293.53 1702.34 1298.21 1817.5 1296M1290 1272.5L1320.25 1215.73C1328.93 1199.45 1346.32 1189.75 1364.73 1190.93L1754.2 1215.8C1765.98 1216.55 1776.63 1223.02 1782.73 1233.12L1796.99 1256.75C1803.14 1266.94 1812.6 1274.71 1823.79 1278.77L1843.7 1285.99C1844.6 1286.31 1844.57 1287.6 1843.66 1287.88L1817.5 1296M1290 1272.5L1261 1343.5M1817.5 1296L1830.06 1328.41C1831.83 1332.99 1830.63 1338.2 1827.03 1341.54L1803.81 1363.07C1800.39 1366.25 1795.86 1368.05 1791.19 1368.14C1579.86 1372 1462.87 1365.74 1261 1343.5M1261 1343.5C1228 1343.5 1185 1326.5 1160 1317" stroke="black" stroke-width="7"/>
<path d="M337 99L276 202.75M276 202.75L219.997 298M276 202.75L249 305.5M538 49C482.601 165.965 458.858 237.296 432.5 356M430 367.5C431.005 362.873 431.505 360.481 432.5 356M219.997 298L148.5 278.5M219.997 298L249 305.5M249 305.5L432.5 356M432.5 356C441.873 358.583 446.952 359.848 453 359" stroke="black" stroke-width="7"/>
<path d="M452 373.5L211 306.5L143.491 288.306C142.089 287.928 141.58 286.185 142.503 285.064C267.392 133.315 320.558 96.6328 427.5 59.5002C504.5 36.4999 633.192 45 680 107C724.003 165.287 741.575 261.349 774.563 458.39C774.714 459.295 773.678 459.941 772.967 459.362C765.821 453.543 759.382 447.729 753.5 443.5M452 373.5C452.779 347.935 462.387 341.383 480 328.5C515.857 306.729 560.462 302.816 614.125 307.427C632.083 308.97 647.928 319.499 657.237 334.933L676.67 367.151C679.169 371.295 682.724 375.032 687.473 375.965C692.713 376.994 697.108 375.736 703.5 373.5M452 373.5L684.5 395.17M452 373.5C453.318 377.919 454.625 382 456 385.768M703.5 373.5L730 295M703.5 373.5C698.139 385.275 690.978 392.155 674.635 401.033C668.411 404.414 661.264 405.638 654.214 404.956L456 385.768M730 295L753.5 443.5M730 295C716.5 218 697.148 151.52 672 119C643 81.5 590.5 63 532.5 60.5C444 56.6853 393 83.5 325.5 118M753.5 443.5C731.401 427.614 718.585 423.82 703.5 432L696.468 435.152C691.568 437.349 686.194 438.277 680.841 437.851L648.057 435.243C646.024 435.081 643.98 435.127 641.956 435.38L622.791 437.776C618.944 438.257 615.053 438.27 611.203 437.815L507 425.5C475.36 420.178 464.409 408.819 456 385.768" stroke="black" stroke-width="7"/>
<path d="M880 451C1477.42 596.057 1817.58 774.288 1841 865L1911.5 876.5L1916.2 870.188C1924.41 859.163 1936.58 851.749 1950.16 849.571C2168.18 814.576 2314.63 801.969 2488.5 795.5C2510.5 797 2522.4 808.565 2533.5 817.5M2275.5 508.5C2450.17 595.204 2515.48 655.545 2551.5 795.5L2533.5 817.5M2533.5 817.5L2558 843M1911.5 877L1894.25 916.75M1894.25 916.75L1882.52 943.777C1878.94 952.038 1878.11 961.235 1880.18 970V970M1894.25 916.75H1968L2164.5 897.5M2558 843L2575.39 862.058C2582.43 869.766 2590.32 879.068 2590.61 889.5V889.5M2558 843L2540.02 850.289C2527.4 855.405 2514.13 858.73 2500.59 860.168L2390 871.917M1880.18 970H1984.5L2167.5 952.5M1880.18 970L1891.71 1019M1891.71 1019L1978.24 1022.52C1986.07 1022.84 1993.91 1022.53 2001.69 1021.59L2526.08 958.242C2535.67 957.084 2545.12 954.976 2554.3 951.95L2592.05 939.5M1891.71 1019L1904.5 1073.34M2592.05 939.5C2591.96 956.266 2591.51 972.451 2590.61 988.5M2592.05 939.5C2592.13 924.105 2591.07 906.219 2590.61 889.5M2590.61 988.5L2563.42 999.65C2551.53 1004.53 2539.04 1007.81 2526.28 1009.42L2012.71 1074.15C2005.58 1075.05 1998.39 1075.42 1991.21 1075.26L1904.5 1073.34M2590.61 988.5C2589.68 1005.15 2588.27 1021.65 2586.29 1038.5M1904.5 1073.34L1916.54 1124.5M1916.54 1124.5H2009.5L2058.12 1118M1916.54 1124.5L1929 1177.42M2586.29 1038.5L2543.28 1052.11C2535.11 1054.7 2526.73 1056.56 2518.23 1057.68L2505 1059.42M2586.29 1038.5C2584.48 1053.91 2582.18 1069.62 2579.34 1086M1929 1177.42H2016.08C2023.35 1177.42 2030.61 1176.88 2037.79 1175.8L2059.75 1172.5M1929 1177.42L1940.32 1225.5M2579.34 1086L2544.89 1098.47C2535.65 1101.81 2526.1 1104.22 2516.38 1105.64L2505 1107.31M2579.34 1086C2576.65 1101.46 2573.47 1117.52 2569.74 1134.5M1940.32 1225.5H2024.93C2032.3 1225.5 2039.66 1224.94 2046.95 1223.83L2061.5 1221.61M1940.32 1225.5L1951.91 1274.75M2569.74 1134.5L2533.73 1147.06C2525.26 1150.01 2516.54 1152.18 2507.67 1153.53L2505 1153.94M2569.74 1134.5C2566.43 1149.54 2562.69 1165.3 2558.47 1182M1951.91 1274.75L1957.62 1299.03C1960.98 1313.29 1974.46 1322.81 1989.02 1321.21C2244.97 1293.07 2362.54 1276.47 2515.72 1238.52C2534.15 1233.96 2548.66 1219.72 2553.48 1201.36C2555.22 1194.76 2556.88 1188.32 2558.47 1182M1951.91 1274.75H2031.73C2039.23 1274.75 2046.72 1274.17 2054.14 1273.02L2498.87 1203.94C2513.54 1201.66 2527.77 1197.16 2541.09 1190.58L2558.47 1182M2590.61 889.5L2533.1 906.849C2525.05 909.278 2516.8 911.007 2508.45 912.017L2401 925M2073.72 1229.21L2495.6 1167.38C2501 1166.59 2505 1161.95 2505 1156.49V1041.49C2505 1034.86 2499.18 1029.74 2492.61 1030.58L2067.07 1084.74C2061.45 1085.45 2057.3 1090.32 2057.47 1095.98L2061.13 1218.65C2061.33 1225.23 2067.21 1230.16 2073.72 1229.21Z" stroke="black" stroke-width="7"/>
<path d="M724.5 101C770.16 231.632 804.21 317.497 826.162 446.02C826.934 450.544 830.969 453.814 835.551 453.569C840.559 453.302 845.542 453.036 850.5 452.772M724.5 101C733 103.5 737.021 104.807 741 104.5M724.5 101L647.5 78.5M1558.5 105.5C1239.11 73.8046 1054.19 80.3618 741 104.5M1558.5 105.5C1685.03 185.338 1756.1 254.647 1885.79 380.185C1886.43 380.798 1886.03 381.891 1885.15 381.922L895.664 417.675C873.761 418.467 853.768 405.125 846.131 384.581C794.157 244.757 772.086 175.429 741 104.5M1558.5 105.5L1568.5 98.5M850.5 452.772C1238.78 432.081 1477.53 421.345 1913 406.5H1951.5M850.5 452.772C845.616 469.363 847.075 480.086 850.872 494.967C852.159 500.013 856.037 504.106 860.928 505.894C1220.37 637.267 1334.54 702.454 1463.5 811" stroke="black" stroke-width="7"/>
<path d="M1223.5 780.607C1218.5 780.209 1214.62 780 1212 780C1152.64 780 1233.14 891.931 1262.23 930M1223.5 780.607L1316.5 882M1223.5 780.607C1303.5 786.966 1679.34 842.529 1806 861.5M1316.5 882L1262.23 930M1316.5 882L1731.62 920.738C1743.51 921.848 1755.22 917.306 1763.26 908.476L1806 861.5M1262.23 930V930C1268.51 938.216 1277.22 944.126 1287.19 946.891C1318.46 955.565 1391.45 973.906 1443.5 972C1499.53 969.948 1584 942.5 1584 942.5L1751.65 953.706C1763.77 954.517 1775.51 949.327 1783.07 939.822L1841 867C1841 867 1832.96 865.539 1806 861.5M2567.5 775L2622.46 707.284C2622.93 706.7 2623.86 706.828 2624.15 707.519L2643.5 752.5M2567.5 775L2556.93 788.289C2553.23 792.942 2554.4 799.758 2559.27 803.171C2583.62 820.25 2595.1 835.726 2609.83 854.383C2612.49 857.764 2617.82 857.317 2620.17 853.706C2626.22 844.397 2637.33 829.953 2648.5 829C2656.86 828.287 2669.5 833.5 2669.5 833.5L2643.5 752.5M2567.5 775L2602.7 815.483C2605.01 818.137 2609.26 817.642 2610.9 814.528L2643.5 752.5" stroke="black" stroke-width="7"/>
<path d="M2623.98 707.633C2569.98 601.133 2390.68 539.168 1950.98 407.133L1922.48 378.133M1922.48 378.133L1905.28 361.133M1922.48 378.133C1938.73 367.15 1948.65 358.87 1953.48 349.913M1835.98 292.633C1841.37 286.182 1851.17 279.718 1864.48 277.133C1898.51 270.525 1942.65 281.565 1953.48 316.133C1956.14 324.637 1957.4 331.596 1956.98 337.77M1835.98 292.633C1657.24 144.177 1568.48 64.6329 1337.98 31.6329C1288.48 24.5461 1262.52 22.3061 1229.98 19.6333M1835.98 292.633L1891.12 347.133M30.4804 326.633C36.9802 311.133 47.0144 303.132 60.4804 292.633C93.5392 272.79 111.136 265.314 142.48 252.133C262.218 121.033 327.48 67.1324 459.98 31.1328C501.269 19.9149 569.375 12.3699 653.98 8.36241M30.4804 326.633C11.9425 406.601 -1.50675 481.947 6.22782 702.886C6.69487 716.228 9.92621 729.352 15.6411 741.417L24.9804 761.133M30.4804 326.633C62.3087 327.238 91.5515 333.749 162.48 355.633L746.98 532.133C1095.35 649.979 1258.46 711.814 1302.48 789.633M24.9804 761.133C6.91563 568.133 28.9804 478.133 72.9802 493.133C128.86 512.183 150.396 681.564 200.187 853.106C203.85 865.725 212.073 876.513 223.156 883.572L283.5 922M24.9804 761.133C24.9804 761.133 9.95268 572.633 72.9802 532.133C123.98 499.362 183.946 741.133 149.48 876.633C115.015 1012.13 66.9804 923.657 59.4804 913.133M24.9804 761.133C29.6137 810.633 36.4804 870.633 59.4804 913.133M283.5 922C278.52 953.867 227.5 959.5 199.5 963C171.5 966.5 122.48 972.633 83.4804 943.055C73.3876 933.055 72.9804 935.133 59.4804 913.133M283.5 922L799.25 1206.74C802.57 1208.58 804.927 1211.8 805.716 1215.51C829.598 1327.88 859.221 1391.52 901.98 1442.63M901.98 1442.63C934.98 1479.63 983.048 1492.7 1031.48 1495.63C1070.36 1496.76 1109.55 1493.37 1174.09 1481.62C1208.13 1475.42 1236.24 1451.68 1249.1 1419.57L1249.48 1418.63C1459.33 1432.62 1598.03 1438.25 1807.98 1439.13L1899.48 1421.13C1899.48 1421.13 2175.72 1387.53 2350.48 1353.13C2451.39 1333.27 2607.48 1295.63 2607.48 1295.63H2637.98C2672.51 1276.62 2682.86 1263.56 2693.48 1238.13C2703.56 1201.18 2689.22 1184.76 2662.98 1155.63L2671.18 1135.87C2677 1121.82 2680.29 1106.86 2680.91 1091.66L2681.72 1071.56C2681.89 1067.36 2683.26 1063.3 2685.66 1059.86L2702.41 1035.84C2706.39 1030.13 2708.92 1023.52 2709.45 1016.57C2710.31 1005.26 2711.07 987.89 2708.48 980.133C2704.48 968.134 2685.98 959.633 2685.98 959.633C2685.98 959.633 2687.92 898.67 2679.98 864.633C2676.75 850.803 2668.48 832.133 2668.48 832.133M901.98 1442.63C983.48 1517.63 1078.98 1460.13 1093.48 1313.63M1229.98 19.6333C1284.09 27.5167 1333.31 40.1609 1360.86 52.0499C1361.86 52.4843 1361.44 53.9214 1360.35 53.8641C1139.82 42.3142 1021.22 38.5867 837.961 48.4726C830.072 48.8982 822.12 47.8741 814.595 45.4675C762.69 28.8693 727.56 19.4598 653.98 8.36241M1229.98 19.6333C1019.6 2.35292 815.846 0.695274 653.98 8.36241M1905.28 361.133C1927.02 360.247 1937.4 357.57 1953.48 349.913M1905.28 361.133L1891.12 347.133M1953.48 349.913C1955.55 346.078 1956.68 342.119 1956.98 337.77M1956.98 337.77C1930.31 346.916 1915.87 349.057 1891.12 347.133" stroke="black" stroke-width="7"/>
<path d="M804.5 1211.5C765.5 944.5 847 837 916 837C997.5 837 1120.5 1014.5 1093.5 1314M774.5 458.5L747.883 513.478C745.366 518.677 744.652 524.567 745.854 530.218L747.822 539.468C748.593 543.091 748.392 546.854 747.239 550.375L724.655 619.314C721.892 627.749 719.995 636.463 719.056 645.289C706.493 763.369 706.396 834.439 720.5 959.5L716.509 1008.19C715.838 1016.37 716.111 1024.6 717.322 1032.72L727.5 1100.95M727.5 1100.95C513.339 993.686 349 912.5 256.5 847.5C215.113 818.418 216.448 789 203.5 735C181.033 641.312 168.123 582.015 139.547 489.929C136.895 481.384 135.63 472.428 136.095 463.493C138.196 423.186 142.975 397.177 160.003 358.025C161.311 355.019 163.067 352.218 165.209 349.736C178.498 334.336 189.325 324.331 215.5 306.5M727.5 1100.95C727.5 1100.95 751.644 1113.61 773.06 1124.81C777.308 1127.03 782.323 1123.59 781.886 1118.81C764.509 928.647 828.742 767 902 767C964 767 1029.14 832.372 1078.41 953M1250.5 1418.5L1186.33 1406.76C1175.08 1404.7 1165.42 1397.56 1160.15 1387.41L1149.9 1367.66C1148.68 1365.31 1148.44 1362.59 1149.23 1360.07L1157.85 1332.47C1159.6 1326.88 1160.22 1320.98 1159.63 1315.15C1144.61 1164.84 1115.42 1043.62 1078.41 953M1078.41 953L1267.23 993.924C1270.97 994.734 1274.5 991.886 1274.5 988.06V938.5M472 971.784C430.613 942.702 425.948 854 413 800C390.532 706.305 382.192 642.436 354.013 549.937C351.406 541.379 350.13 532.428 350.595 523.493C352.696 483.186 357.475 457.177 374.503 418.025C375.811 415.019 377.567 412.218 379.709 409.736C392.998 394.336 403.825 384.331 430 366.5M1528.6 1059.41C1542.26 1076.85 1548.96 1089.01 1554.71 1107.59C1555.91 1111.47 1552.83 1115.31 1548.77 1115.1C1510.96 1113.16 1486.27 1110.1 1451.16 1103.12C1441.21 1101.14 1431.79 1096.69 1424.63 1089.51C1412.27 1077.11 1406.13 1066.54 1400.73 1050.31C1399.89 1047.8 1399.5 1045.15 1399.5 1042.5V1042.5C1399.5 1038.18 1403.17 1034.78 1407.47 1035.13C1453.35 1038.87 1500.66 1044.59 1521.05 1053.3C1524.08 1054.59 1526.57 1056.81 1528.6 1059.41Z" stroke="black" stroke-width="7"/>
<path d="M1784.5 1129C1784.5 1145.19 1770.94 1158.5 1754 1158.5C1737.06 1158.5 1723.5 1145.19 1723.5 1129C1723.5 1112.81 1737.06 1099.5 1754 1099.5C1770.94 1099.5 1784.5 1112.81 1784.5 1129Z" stroke="black" stroke-width="7"/>
<path d="M2240.91 918.932C2244.43 947.237 2228.44 971.285 2206.75 973.986C2185.06 976.687 2163.66 957.294 2160.13 928.988C2156.61 900.683 2172.6 876.635 2194.29 873.934C2215.98 871.234 2237.38 890.626 2240.91 918.932Z" stroke="black" stroke-width="7"/>
<path d="M2297.91 911.932C2301.43 940.237 2285.44 964.285 2263.75 966.986C2242.06 969.687 2220.66 950.294 2217.13 921.988C2213.61 893.683 2229.6 869.635 2251.29 866.934C2272.98 864.234 2294.38 883.626 2297.91 911.932Z" stroke="black" stroke-width="7"/>
<path d="M2351.91 907.932C2355.43 936.237 2339.44 960.285 2317.75 962.986C2296.06 965.687 2274.66 946.294 2271.13 917.988C2267.61 889.683 2283.6 865.635 2305.29 862.934C2326.98 860.234 2348.38 879.626 2351.91 907.932Z" stroke="black" stroke-width="7"/>
<path d="M2401.91 900.932C2405.43 929.237 2389.44 953.285 2367.75 955.986C2346.06 958.687 2324.66 939.294 2321.13 910.988C2317.61 882.683 2333.6 858.635 2355.29 855.934C2376.98 853.234 2398.38 872.626 2401.91 900.932Z" stroke="black" stroke-width="7"/>
<path d="M759.824 615.13L753.443 613.614C748.247 612.38 744.077 608.514 742.455 603.425C742.255 602.798 742.815 602.193 743.456 602.345L763.932 607.197C765.053 607.463 765.719 608.619 765.385 609.722L764.578 612.395C763.966 614.42 761.883 615.619 759.824 615.13Z" stroke="black" stroke-width="7"/>
<path d="M421.615 502.524L385.254 490.28C380.04 488.524 375.916 484.48 374.057 479.302L370.693 469.931C370.411 469.147 371.156 468.382 371.948 468.644L427.348 486.954C428.295 487.267 428.867 488.23 428.688 489.211L426.827 499.448C426.391 501.848 423.927 503.302 421.615 502.524Z" stroke="black" stroke-width="7"/>
<path d="M196.199 428.62L169.822 419.83C163.998 417.889 159.564 413.113 158.061 407.161L156.444 400.76C156.251 399.996 156.976 399.319 157.724 399.564L202.247 414.128C203.237 414.452 203.813 415.481 203.57 416.494L201.354 425.757C200.808 428.038 198.425 429.362 196.199 428.62Z" stroke="black" stroke-width="7"/>
<path d="M1058.23 1151.4C1065.8 1225.75 1059.43 1294.24 1043.14 1344.82C1034.99 1370.12 1024.42 1390.78 1012.01 1405.46C999.619 1420.12 985.56 1428.65 970.337 1430.2C955.115 1431.75 939.625 1426.23 924.533 1414.37C909.423 1402.49 894.9 1384.39 881.82 1361.25C855.664 1314.99 835.611 1249.19 828.039 1174.84C820.466 1100.49 826.842 1032 843.134 981.415C851.281 956.116 861.856 935.458 874.261 920.779C886.652 906.118 900.711 897.589 915.934 896.039C931.156 894.488 946.646 900.008 961.738 911.87C976.848 923.746 991.37 941.848 1004.45 964.985C1030.61 1011.25 1050.66 1077.05 1058.23 1151.4Z" stroke="black" stroke-width="7"/>
<path d="M136.216 738.446C137.521 785.879 134.479 829.15 127.5 860.556C124.005 876.285 119.571 888.804 114.359 897.353C109.11 905.964 103.538 909.846 97.9033 910.001C91.8206 910.169 85.9748 907.434 80.3133 900.987C74.587 894.465 69.2382 884.33 64.4125 870.292C54.7695 842.24 47.556 799.64 42.9887 742.222C39.5126 698.524 42.6143 655.34 50.1975 623.092C53.9947 606.944 58.8687 593.743 64.4632 584.617C70.1423 575.352 76.0166 571.123 81.5823 570.97C87.325 570.812 93.5526 574.402 99.9141 582.59C106.221 590.708 112.178 602.766 117.383 618.04C127.778 648.547 134.913 691.104 136.216 738.446Z" stroke="black" stroke-width="7"/>
</svg>
